<svg xmlns="http://www.w3.org/2000/svg" viewBox="0 0 32 32" width="32" height="32">
  <rect width="32" height="32" rx="7" fill="#24418F"/>
  <g transform="translate(5.647 3.94) scale(0.67)" fill="#F6F5F1">
    <path d="M0 0.850342V35.1497H30.9047V0.850342H0ZM29.5714 2.13657V18H1.28571V4.89957H1.33333C1.38095 4.89957 7.14285 4.75666 10.9524 8.42478C12.4286 9.85392 13.4762 11.7118 14 13.9508C12.4762 12.2358 9.66666 10.7114 4.90476 10.7114V11.9976C14.1905 11.9976 14.4762 17.9047 14.4762 17.9524H16.4762C16.4762 13.8555 18.0476 10.9972 21.1428 9.37754C23.4762 8.18659 25.8095 8.13895 26.0952 8.13895V6.13816C25.7619 6.13816 23 6.18579 20.2381 7.61493C18.619 8.47242 16.8095 9.90156 15.6667 12.2835C15 10.1874 13.9048 8.37714 12.3809 6.90036C8.04762 2.75586 1.95238 2.8035 1.38095 2.8035V2.04129C1.28571 2.13657 29.5714 2.13657 29.5714 2.13657ZM29.5714 33.1012C29 33.1012 22.8571 33.1965 18.5714 29.0044C17.0476 27.5276 15.9524 25.765 15.2857 23.6213C14.1428 26.0508 12.3333 27.48 10.7143 28.2898C7.95238 29.7189 5.19047 29.7666 4.85714 29.7666V27.7658C5.09524 27.7658 7.47619 27.7182 9.80952 26.5272C12.9048 24.9075 14.4762 22.0492 14.4762 17.9524H16.4762C16.4762 18 16.7143 23.9071 26.0476 23.9071V25.1933C21.2381 25.1933 18.4762 23.6689 16.9524 21.954C17.4762 24.1929 18.5238 26.0508 20 27.48C23.8095 31.1957 29.5714 31.0052 29.619 31.0052H29.6667C29.5714 31.1481 29.5714 33.1012 29.5714 33.1012Z"/>
  </g>
</svg>
